<svg width="108" height="101" viewBox="0 0 108 101" fill="none" xmlns="http://www.w3.org/2000/svg">
<g clip-path="url(#clip0_1549_2044)">
<path d="M70.1202 71.89C73.0702 73.48 109.01 5.59999 106.06 4.00999C104.79 3.31999 102.24 1.94999 100.97 1.26999C98.3202 -0.16001 62.3802 67.72 65.0302 69.15C66.3002 69.84 68.8502 71.21 70.1202 71.89Z" stroke="#1D67F1" stroke-width="2.5" stroke-linecap="round" stroke-linejoin="round"/>
<path d="M75.6104 50.83C75.1104 51.94 74.6104 53.04 74.1104 54.15" stroke="#1D67F1" stroke-width="1.5" stroke-linecap="round" stroke-linejoin="round"/>
<path d="M78.4996 52.04C78.0496 53.06 77.5896 54.09 77.1396 55.11" stroke="#1D67F1" stroke-width="1.5" stroke-linecap="round" stroke-linejoin="round"/>
<path d="M94.0996 11.41C96.6696 12.15 99.1296 13.3 101.36 14.79" stroke="#1D67F1" stroke-width="1.5" stroke-linecap="round" stroke-linejoin="round"/>
<path d="M95.8896 8.08997C98.5196 9.06997 101.04 10.3 103.43 11.77" stroke="#1D67F1" stroke-width="2.5" stroke-linecap="round" stroke-linejoin="round"/>
<path d="M71.5703 53.73C74.5603 53.93 77.4503 55.43 79.3303 57.76" stroke="#1D67F1" stroke-width="2.5" stroke-linecap="round" stroke-linejoin="round"/>
<path d="M73.5498 49.9C76.7198 49.83 79.8698 51.52 81.5698 54.2" stroke="#1D67F1" stroke-width="2.5" stroke-linecap="round" stroke-linejoin="round"/>
<path d="M65.0796 69.22C63.1496 73.67 60.1096 77.63 56.3096 80.64" stroke="#1D67F1" stroke-width="2.5" stroke-linecap="round" stroke-linejoin="round"/>
<path d="M56.1497 80.98C55.6597 85.38 53.6296 92.42 53.1396 96.82" stroke="#1D67F1" stroke-width="2.5" stroke-linecap="round" stroke-linejoin="round"/>
<path d="M53.1299 96.83C56.8699 94.61 62.3499 89.85 66.0899 87.63" stroke="#1D67F1" stroke-width="2.5" stroke-linecap="round" stroke-linejoin="round"/>
<path d="M53.1299 96.83C55.2099 93.36 59.1499 87.14 61.2199 83.67" stroke="#1D67F1" stroke-width="2.5" stroke-linecap="round" stroke-linejoin="round"/>
<path d="M1.25 96.17C4.23 92.89 13.22 84.52 17.99 85.88C23.34 87.41 15.46 94.03 19.86 98.52C22.83 101.55 31.26 95.21 34.76 95.24C37.38 95.26 37.39 98.52 37.39 98.52C40 98.79 46.09 98.57 49.54 98.88" stroke="#1D67F1" stroke-width="2.5" stroke-linecap="round" stroke-linejoin="round"/>
<path d="M61.4796 82.9499C61.3496 82.9199 61.2296 83.0499 61.2396 83.1799C61.2396 83.3099 61.3596 83.4199 61.4796 83.4499C61.7396 83.5299 62.0396 83.3199 62.0496 83.0499C62.0596 82.7799 61.7796 82.5499 61.5196 82.5999C61.2196 82.6599 61.0696 83.0799 61.2496 83.3299C61.4296 83.5799 61.8396 83.5999 62.0596 83.3899C62.2796 83.1799 62.2896 82.7999 62.0896 82.5699C61.8896 82.3399 61.5196 82.2999 61.2696 82.4599C61.0196 82.6299 60.9096 82.9799 61.0196 83.2599C61.1296 83.5399 61.4296 83.7299 61.7296 83.7199C62.1796 83.6999 62.5396 83.1799 62.3996 82.7399C62.2596 82.3099 61.6596 82.0999 61.2796 82.3599C60.8996 82.6099 60.8596 83.2399 61.1996 83.5399" stroke="#1D67F1" stroke-width="2.5" stroke-linecap="round" stroke-linejoin="round"/>
<path d="M66.0801 87.42C66.2301 82.1 67.8601 76.82 70.7501 72.34" stroke="#1D67F1" stroke-width="2.5" stroke-linecap="round" stroke-linejoin="round"/>
</g>
<defs>
<clipPath id="clip0_1549_2044">
<rect width="107.49" height="100.59" fill="white"/>
</clipPath>
</defs>
</svg>
