<svg width="109" height="115" viewBox="0 0 109 115" fill="none" xmlns="http://www.w3.org/2000/svg">
<g clip-path="url(#clip0_1264_435)">
<path d="M76.1716 64.0743C77.4776 62.9153 78.6387 61.5513 79.6038 60.2078C86.832 50.1451 84.6405 36.2097 74.711 29.0772C64.7815 21.9447 50.8777 24.3287 43.6495 34.3914C40.1858 39.2133 38.8146 44.6711 39.4684 50.0307C39.8687 53.3027 39.0681 56.6195 37.1229 59.2855C37.1085 59.3054 37.0942 59.3254 37.0799 59.3453C35.5808 61.4042 33.7856 63.2301 32.3264 65.3177C31.4129 66.6175 30.6129 68.1098 30.7024 69.6965C30.8842 72.8519 34.2458 75.4379 36.4515 77.3046C38.5357 79.074 40.807 80.6249 43.2028 81.9324C45.173 83.0048 47.6976 84.2032 50.0164 83.57C51.5438 83.1548 52.7074 81.9137 53.6475 80.6329C55.1533 78.5788 56.3171 76.2993 57.7896 74.2214C58.7097 72.9263 59.5429 71.7805 60.9052 70.8938C62.2466 70.0223 63.7678 69.4615 65.2878 69.0006C67.9896 68.1989 70.5951 67.4893 73.1137 66.2132C74.2029 65.6647 75.2261 64.9277 76.1782 64.079" stroke="url(#paint0_linear_1264_435)" stroke-width="2" stroke-linecap="round" stroke-linejoin="round"/>
<path d="M30.86 70.4449C29.3114 70.3004 27.851 71.52 27.4031 73.0131C26.96 74.4996 27.37 76.1452 28.1957 77.4643C29.0215 78.7834 30.2068 79.8264 31.4152 80.7952C34.7061 83.4515 38.2853 85.7906 42.2247 87.3197C43.5962 87.8511 45.1097 88.2829 46.5258 87.8684C47.9419 87.4539 49.0904 85.8691 48.5388 84.5049" stroke="url(#paint1_linear_1264_435)" stroke-width="2" stroke-linecap="round" stroke-linejoin="round"/>
<path d="M27.2228 75.1018C25.6742 74.9573 24.4973 76.1889 24.0542 77.6754C23.6111 79.1619 24.021 80.8074 24.8468 82.1265C25.6726 83.4456 26.8579 84.4886 28.0663 85.4574C31.3572 88.1137 34.9364 90.4528 38.8758 91.9819C40.2472 92.5133 41.7607 92.9451 43.1769 92.5306C44.593 92.1161 45.7414 90.5314 45.1898 89.1672" stroke="url(#paint2_linear_1264_435)" stroke-width="2" stroke-linecap="round" stroke-linejoin="round"/>
<path d="M24.3531 81.4393C22.4623 84.0435 22.6566 87.4901 24.4851 90.1344C25.6997 91.8941 27.5639 93.072 29.3923 94.1736C30.7001 94.9618 32.0736 95.7568 33.5861 95.8955C34.818 96.004 36.054 95.6719 37.1746 95.1358C38.2885 94.595 39.2955 93.8664 40.2977 93.1445" stroke="url(#paint3_linear_1264_435)" stroke-width="2" stroke-linecap="round" stroke-linejoin="round"/>
<path d="M33.5711 70.3456C38.9773 72.3435 43.8579 75.7183 47.6481 80.0641" stroke="url(#paint4_linear_1264_435)" stroke-width="2" stroke-linecap="round" stroke-linejoin="round"/>
<path d="M38.5577 72.6471C42.0773 70.4264 44.3967 66.7487 46.2699 63.0328C48.3872 58.8369 50.0959 54.4382 51.3664 49.9062" stroke="url(#paint5_linear_1264_435)" stroke-width="2" stroke-linecap="round" stroke-linejoin="round"/>
<path d="M63.2708 59.7177C63.8117 59.2593 64.0435 58.4175 63.6952 57.7943" stroke="url(#paint6_linear_1264_435)" stroke-width="2" stroke-linecap="round" stroke-linejoin="round"/>
<path d="M57.1658 54.667C56.7269 55.3902 56.7535 56.3772 57.1279 57.1604C57.5761 58.1074 58.4266 58.789 59.3155 59.3468C59.9176 59.7289 60.5598 60.0692 61.2598 60.1889C61.9597 60.3085 62.7318 60.1876 63.2708 59.7177" stroke="url(#paint7_linear_1264_435)" stroke-width="2" stroke-linecap="round" stroke-linejoin="round"/>
<path d="M59.6223 55.4131C59.7525 55.1336 59.7887 54.8167 59.6877 54.5224C59.5386 54.1128 59.1189 53.8416 58.6841 53.8015C58.2513 53.7729 57.8178 53.9556 57.5029 54.2537C57.3712 54.3809 57.2643 54.5158 57.1658 54.6669" stroke="url(#paint8_linear_1264_435)" stroke-width="2" stroke-linecap="round" stroke-linejoin="round"/>
<path d="M52.7271 52.4163C52.1648 53.676 52.8157 55.2526 53.9609 56.0148C55.1062 56.7769 56.6074 56.847 57.9434 56.5161C58.429 56.4011 58.9215 56.2205 59.2812 55.874C59.4177 55.7401 59.5323 55.5805 59.6204 55.4017" stroke="url(#paint9_linear_1264_435)" stroke-width="2" stroke-linecap="round" stroke-linejoin="round"/>
<path d="M54.9696 53.7549C55.4299 53.5209 55.8023 53.0725 55.8295 52.5577C55.8622 51.825 55.139 51.2047 54.4139 51.2182C53.6888 51.2317 53.0364 51.7613 52.729 52.4277" stroke="url(#paint10_linear_1264_435)" stroke-width="2" stroke-linecap="round" stroke-linejoin="round"/>
<path d="M48.9772 49.2488C48.8727 49.5065 48.8262 49.7957 48.8368 50.0755C48.8694 50.6333 49.1142 51.162 49.4316 51.632C50.3344 52.956 51.8589 53.8494 53.4627 53.9731C53.9745 54.0181 54.5075 53.9774 54.9744 53.7482" stroke="url(#paint11_linear_1264_435)" stroke-width="2" stroke-linecap="round" stroke-linejoin="round"/>
<path d="M51.0112 48.7034C50.6376 48.2837 49.9364 48.264 49.4796 48.5913C49.2488 48.7583 49.0864 48.9844 48.9771 49.2487" stroke="url(#paint12_linear_1264_435)" stroke-width="2" stroke-linecap="round" stroke-linejoin="round"/>
<path d="M62.4324 57.8551C55.441 62.8753 49.5279 69.3959 45.2105 76.8511" stroke="url(#paint13_linear_1264_435)" stroke-width="2" stroke-linecap="round" stroke-linejoin="round"/>
<path d="M47.499 37.6306C50.6835 32.9308 56.2672 29.9545 61.9402 29.9259C67.6131 29.8973 73.223 32.8178 76.4499 37.485" stroke="url(#paint14_linear_1264_435)" stroke-width="2" stroke-linecap="round" stroke-linejoin="round"/>
<path d="M29.2771 73.462C29.312 74.5357 29.8227 75.578 30.6389 76.2652" stroke="url(#paint15_linear_1264_435)" stroke-width="2" stroke-linecap="round" stroke-linejoin="round"/>
<path d="M26.1525 78.2047C26.3845 79.2283 26.8659 80.1993 27.5486 81.0022" stroke="url(#paint16_linear_1264_435)" stroke-width="2" stroke-linecap="round" stroke-linejoin="round"/>
<path d="M25.439 86.1414C25.6191 86.7042 25.9829 87.2076 26.4519 87.5646" stroke="url(#paint17_linear_1264_435)" stroke-width="2" stroke-linecap="round" stroke-linejoin="round"/>
<path d="M29.7263 41.3188C31.1492 41.4839 32.5574 41.8098 33.9081 42.286" stroke="url(#paint18_linear_1264_435)" stroke-width="2" stroke-linecap="round" stroke-linejoin="round"/>
<path d="M31.645 33.2195C32.929 33.7184 34.2178 34.2106 35.5018 34.7094" stroke="url(#paint19_linear_1264_435)" stroke-width="2" stroke-linecap="round" stroke-linejoin="round"/>
<path d="M36.4856 24.8395C37.7908 25.5753 39.1026 26.316 40.4078 27.0519" stroke="url(#paint20_linear_1264_435)" stroke-width="2" stroke-linecap="round" stroke-linejoin="round"/>
<path d="M45.0715 17.0526C46.0474 18.1065 47.03 19.1652 48.0059 20.2192" stroke="url(#paint21_linear_1264_435)" stroke-width="2" stroke-linecap="round" stroke-linejoin="round"/>
<path d="M54.7118 12.9875C55.1654 14.3619 55.6123 15.7315 56.0659 17.1059" stroke="url(#paint22_linear_1264_435)" stroke-width="2" stroke-linecap="round" stroke-linejoin="round"/>
<path d="M66.7892 13.9598C66.7453 15.2693 66.6948 16.574 66.6509 17.8834" stroke="url(#paint23_linear_1264_435)" stroke-width="2" stroke-linecap="round" stroke-linejoin="round"/>
<path d="M80.0127 20.1815C79.3323 21.1849 78.6518 22.1884 77.9713 23.1918" stroke="url(#paint24_linear_1264_435)" stroke-width="2" stroke-linecap="round" stroke-linejoin="round"/>
<path d="M89.4167 29.6589C88.3183 30.4024 87.2199 31.146 86.1216 31.8896" stroke="url(#paint25_linear_1264_435)" stroke-width="2" stroke-linecap="round" stroke-linejoin="round"/>
<path d="M93.9763 39.1751C92.7288 39.5091 91.4813 39.8431 90.2405 40.1819" stroke="url(#paint26_linear_1264_435)" stroke-width="2" stroke-linecap="round" stroke-linejoin="round"/>
<path d="M95.3616 51.3013C94.3858 51.1449 93.3986 50.9903 92.4229 50.8338" stroke="url(#paint27_linear_1264_435)" stroke-width="2" stroke-linecap="round" stroke-linejoin="round"/>
<path d="M91.9868 61.3998C90.9409 60.8501 89.8949 60.3004 88.8508 59.7621" stroke="url(#paint28_linear_1264_435)" stroke-width="2" stroke-linecap="round" stroke-linejoin="round"/>
<path d="M86.1117 70.1961C84.7791 69.0775 83.4513 67.9524 82.1254 66.8386" stroke="url(#paint29_linear_1264_435)" stroke-width="2" stroke-linecap="round" stroke-linejoin="round"/>
<path d="M79.1001 75.5949C78.5045 74.6428 77.904 73.6973 77.3084 72.7451" stroke="url(#paint30_linear_1264_435)" stroke-width="2" stroke-linecap="round" stroke-linejoin="round"/>
</g>
<defs>
<linearGradient id="paint0_linear_1264_435" x1="85.195" y1="46.8348" x2="45.4639" y2="24.2187" gradientUnits="userSpaceOnUse">
<stop stop-color="#EEA6FF"/>
<stop offset="1" stop-color="#1D67F1"/>
</linearGradient>
<linearGradient id="paint1_linear_1264_435" x1="47.8345" y1="83.9945" x2="24.5938" y2="79.3092" gradientUnits="userSpaceOnUse">
<stop stop-color="#EEA6FF"/>
<stop offset="1" stop-color="#1D67F1"/>
</linearGradient>
<linearGradient id="paint2_linear_1264_435" x1="44.4" y1="88.7698" x2="21.1653" y2="84.2876" gradientUnits="userSpaceOnUse">
<stop stop-color="#EEA6FF"/>
<stop offset="1" stop-color="#1D67F1"/>
</linearGradient>
<linearGradient id="paint3_linear_1264_435" x1="38.6409" y1="92.9534" x2="20.0949" y2="88.1375" gradientUnits="userSpaceOnUse">
<stop stop-color="#EEA6FF"/>
<stop offset="1" stop-color="#1D67F1"/>
</linearGradient>
<linearGradient id="paint4_linear_1264_435" x1="47.0615" y1="78.7211" x2="40.1746" y2="82.4152" gradientUnits="userSpaceOnUse">
<stop stop-color="#EEA6FF"/>
<stop offset="1" stop-color="#1D67F1"/>
</linearGradient>
<linearGradient id="paint5_linear_1264_435" x1="52.3557" y1="54.9225" x2="48.905" y2="52.5615" gradientUnits="userSpaceOnUse">
<stop stop-color="#EEA6FF"/>
<stop offset="1" stop-color="#1D67F1"/>
</linearGradient>
<linearGradient id="paint6_linear_1264_435" x1="64.1735" y1="58.4382" x2="63.4474" y2="57.9872" gradientUnits="userSpaceOnUse">
<stop stop-color="#EEA6FF"/>
<stop offset="1" stop-color="#1D67F1"/>
</linearGradient>
<linearGradient id="paint7_linear_1264_435" x1="62.9111" y1="59.2202" x2="55.5784" y2="57.7545" gradientUnits="userSpaceOnUse">
<stop stop-color="#EEA6FF"/>
<stop offset="1" stop-color="#1D67F1"/>
</linearGradient>
<linearGradient id="paint8_linear_1264_435" x1="59.8845" y1="54.7408" x2="57.6254" y2="53.7255" gradientUnits="userSpaceOnUse">
<stop stop-color="#EEA6FF"/>
<stop offset="1" stop-color="#1D67F1"/>
</linearGradient>
<linearGradient id="paint9_linear_1264_435" x1="58.9007" y1="55.5157" x2="51.9783" y2="53.0287" gradientUnits="userSpaceOnUse">
<stop stop-color="#EEA6FF"/>
<stop offset="1" stop-color="#1D67F1"/>
</linearGradient>
<linearGradient id="paint10_linear_1264_435" x1="55.9535" y1="52.3599" x2="53.3396" y2="51.1329" gradientUnits="userSpaceOnUse">
<stop stop-color="#EEA6FF"/>
<stop offset="1" stop-color="#1D67F1"/>
</linearGradient>
<linearGradient id="paint11_linear_1264_435" x1="54.4602" y1="53.5175" x2="47.6988" y2="52.7277" gradientUnits="userSpaceOnUse">
<stop stop-color="#EEA6FF"/>
<stop offset="1" stop-color="#1D67F1"/>
</linearGradient>
<linearGradient id="paint12_linear_1264_435" x1="50.8119" y1="48.8066" x2="49.5635" y2="48.1238" gradientUnits="userSpaceOnUse">
<stop stop-color="#EEA6FF"/>
<stop offset="1" stop-color="#1D67F1"/>
</linearGradient>
<linearGradient id="paint13_linear_1264_435" x1="60.2378" y1="60.5068" x2="57.5074" y2="58.621" gradientUnits="userSpaceOnUse">
<stop stop-color="#EEA6FF"/>
<stop offset="1" stop-color="#1D67F1"/>
</linearGradient>
<linearGradient id="paint14_linear_1264_435" x1="74.2086" y1="37.646" x2="52.5147" y2="27.6078" gradientUnits="userSpaceOnUse">
<stop stop-color="#EEA6FF"/>
<stop offset="1" stop-color="#1D67F1"/>
</linearGradient>
<linearGradient id="paint15_linear_1264_435" x1="31.2231" y1="75.1058" x2="28.6491" y2="74.146" gradientUnits="userSpaceOnUse">
<stop stop-color="#EEA6FF"/>
<stop offset="1" stop-color="#1D67F1"/>
</linearGradient>
<linearGradient id="paint16_linear_1264_435" x1="28.1188" y1="79.8591" x2="25.5202" y2="78.9095" gradientUnits="userSpaceOnUse">
<stop stop-color="#EEA6FF"/>
<stop offset="1" stop-color="#1D67F1"/>
</linearGradient>
<linearGradient id="paint17_linear_1264_435" x1="26.6382" y1="87.0965" x2="25.0982" y2="86.7586" gradientUnits="userSpaceOnUse">
<stop stop-color="#EEA6FF"/>
<stop offset="1" stop-color="#1D67F1"/>
</linearGradient>
<linearGradient id="paint18_linear_1264_435" x1="33.5411" y1="42.2969" x2="29.8169" y2="41.2106" gradientUnits="userSpaceOnUse">
<stop stop-color="#EEA6FF"/>
<stop offset="1" stop-color="#1D67F1"/>
</linearGradient>
<linearGradient id="paint19_linear_1264_435" x1="35.1806" y1="34.6513" x2="31.5856" y2="34.2642" gradientUnits="userSpaceOnUse">
<stop stop-color="#EEA6FF"/>
<stop offset="1" stop-color="#1D67F1"/>
</linearGradient>
<linearGradient id="paint20_linear_1264_435" x1="40.1013" y1="26.9133" x2="37.4538" y2="27.7541" gradientUnits="userSpaceOnUse">
<stop stop-color="#EEA6FF"/>
<stop offset="1" stop-color="#1D67F1"/>
</linearGradient>
<linearGradient id="paint21_linear_1264_435" x1="48.1868" y1="19.4331" x2="44.629" y2="19.4484" gradientUnits="userSpaceOnUse">
<stop stop-color="#EEA6FF"/>
<stop offset="1" stop-color="#1D67F1"/>
</linearGradient>
<linearGradient id="paint22_linear_1264_435" x1="57.146" y1="15.16" x2="53.8955" y2="13.6942" gradientUnits="userSpaceOnUse">
<stop stop-color="#EEA6FF"/>
<stop offset="1" stop-color="#1D67F1"/>
</linearGradient>
<linearGradient id="paint23_linear_1264_435" x1="68.1699" y1="15.4939" x2="66.2231" y2="14.366" gradientUnits="userSpaceOnUse">
<stop stop-color="#EEA6FF"/>
<stop offset="1" stop-color="#1D67F1"/>
</linearGradient>
<linearGradient id="paint24_linear_1264_435" x1="79.8007" y1="20.6326" x2="79.7176" y2="20.5735" gradientUnits="userSpaceOnUse">
<stop stop-color="#EEA6FF"/>
<stop offset="1" stop-color="#1D67F1"/>
</linearGradient>
<linearGradient id="paint25_linear_1264_435" x1="89.0408" y1="30.0086" x2="87.8394" y2="29.2407" gradientUnits="userSpaceOnUse">
<stop stop-color="#EEA6FF"/>
<stop offset="1" stop-color="#1D67F1"/>
</linearGradient>
<linearGradient id="paint26_linear_1264_435" x1="93.5942" y1="39.3981" x2="91.3839" y2="38.1813" gradientUnits="userSpaceOnUse">
<stop stop-color="#EEA6FF"/>
<stop offset="1" stop-color="#1D67F1"/>
</linearGradient>
<linearGradient id="paint27_linear_1264_435" x1="95.0975" y1="51.3332" x2="92.5965" y2="50.4557" gradientUnits="userSpaceOnUse">
<stop stop-color="#EEA6FF"/>
<stop offset="1" stop-color="#1D67F1"/>
</linearGradient>
<linearGradient id="paint28_linear_1264_435" x1="91.738" y1="61.3039" x2="89.248" y2="61.7536" gradientUnits="userSpaceOnUse">
<stop stop-color="#EEA6FF"/>
<stop offset="1" stop-color="#1D67F1"/>
</linearGradient>
<linearGradient id="paint29_linear_1264_435" x1="86.0033" y1="69.6908" x2="83.7638" y2="70.8145" gradientUnits="userSpaceOnUse">
<stop stop-color="#EEA6FF"/>
<stop offset="1" stop-color="#1D67F1"/>
</linearGradient>
<linearGradient id="paint30_linear_1264_435" x1="79.5543" y1="74.569" x2="76.6243" y2="73.74" gradientUnits="userSpaceOnUse">
<stop stop-color="#EEA6FF"/>
<stop offset="1" stop-color="#1D67F1"/>
</linearGradient>
<clipPath id="clip0_1264_435">
<rect width="68.4032" height="91.3959" fill="white" transform="translate(53.3206) rotate(35.6902)"/>
</clipPath>
</defs>
</svg>
