<svg width="165" height="56" viewBox="0 0 165 56" fill="none" xmlns="http://www.w3.org/2000/svg">
<g clip-path="url(#clip0_1264_479)">
<path d="M62.4872 55.098C62.7884 55.282 63.2246 55.4346 63.6878 55.4346C64.3713 55.4346 64.7715 55.0756 64.7715 54.5505C64.7715 54.0659 64.4927 53.7877 63.7957 53.5229C62.9503 53.2222 62.4242 52.7869 62.4242 52.0555C62.4242 51.2477 63.0942 50.6509 64.1015 50.6509C64.6321 50.6509 65.0188 50.772 65.2482 50.9067L65.0638 51.4497C64.8929 51.3554 64.5467 51.2028 64.079 51.2028C63.3685 51.2028 63.1032 51.6247 63.1032 51.9792C63.1032 52.4638 63.418 52.7017 64.133 52.9799C65.0098 53.3165 65.455 53.7428 65.455 54.5012C65.455 55.3 64.8615 55.991 63.6383 55.991C63.1392 55.991 62.5906 55.843 62.3163 55.659L62.4872 55.098Z" fill="black"/>
<path d="M66.3498 50.4579H67.0288V52.7779H67.0423C67.1503 52.585 67.3211 52.4189 67.528 52.3023C67.7303 52.1856 67.9687 52.1093 68.2205 52.1093C68.7196 52.1093 69.5201 52.4145 69.5201 53.6979V55.9102H68.841V53.7742C68.841 53.1773 68.6162 52.6702 67.9777 52.6702C67.537 52.6702 67.1907 52.9754 67.0693 53.3479C67.0288 53.4421 67.0244 53.5408 67.0244 53.671V55.9147H66.3453V50.4579H66.3498Z" fill="black"/>
<path d="M71.3773 51.149C71.3863 51.3779 71.2154 51.5619 70.9456 51.5619C70.7073 51.5619 70.5364 51.3779 70.5364 51.149C70.5364 50.9201 70.7118 50.7272 70.9591 50.7272C71.2064 50.7272 71.3728 50.9112 71.3728 51.149H71.3773ZM70.6218 55.9103V52.1901H71.3008V55.9103H70.6218Z" fill="black"/>
<path d="M72.425 53.1997C72.425 52.8138 72.416 52.4997 72.3936 52.1945H72.9961L73.0366 52.8093H73.0501C73.2344 52.4548 73.6661 52.1093 74.2822 52.1093C74.7993 52.1093 75.5997 52.4144 75.5997 53.6934V55.9147H74.9207V53.7696C74.9207 53.1683 74.6959 52.6702 74.0574 52.6702C73.6122 52.6702 73.2659 52.9843 73.149 53.3613C73.1175 53.4465 73.104 53.5587 73.104 53.6754V55.9102H72.425V53.1997V53.1997Z" fill="black"/>
<path d="M77.0701 54.178C77.0836 55.0935 77.6727 55.4704 78.3472 55.4704C78.8329 55.4704 79.1252 55.3852 79.377 55.2775L79.4939 55.7621C79.2556 55.8698 78.8464 55.991 78.2528 55.991C77.1061 55.991 76.4226 55.2371 76.4226 54.1152C76.4226 52.9933 77.0836 52.1093 78.1719 52.1093C79.3905 52.1093 79.7097 53.1773 79.7097 53.8594C79.7097 53.9985 79.6963 54.1062 79.6873 54.1735H77.0701V54.178ZM79.0577 53.6934C79.0667 53.2625 78.8823 52.5939 78.1179 52.5939C77.4344 52.5939 77.1331 53.2222 77.0791 53.6934H79.0577Z" fill="black"/>
<path d="M82.4529 52.1946L82.9475 54.0838C83.0554 54.4967 83.1544 54.8826 83.2263 55.2685H83.2488C83.3342 54.8916 83.4557 54.4922 83.5816 54.0928L84.1886 52.1946H84.7597L85.3353 54.0524C85.4747 54.4967 85.5826 54.8916 85.6681 55.2685H85.6905C85.7535 54.8916 85.8524 54.5012 85.9738 54.0614L86.5045 52.1946H87.1745L85.9738 55.9148H85.3578L84.7867 54.1377C84.6563 53.7248 84.5484 53.3524 84.4539 52.9171H84.4404C84.346 53.3613 84.2336 53.7473 84.1032 54.1467L83.5006 55.9148H82.8846L81.7604 52.1946H82.4529V52.1946Z" fill="black"/>
<path d="M88.5999 51.149C88.6089 51.3779 88.438 51.5619 88.1682 51.5619C87.9299 51.5619 87.759 51.3779 87.759 51.149C87.759 50.9201 87.9344 50.7272 88.1817 50.7272C88.4291 50.7272 88.5954 50.9112 88.5954 51.149H88.5999ZM87.8445 55.9103V52.1901H88.5235V55.9103H87.8445Z" fill="black"/>
<path d="M90.4616 51.1266V52.1946H91.4329V52.7107H90.4616V54.7166C90.4616 55.1788 90.592 55.4391 90.9697 55.4391C91.1451 55.4391 91.2755 55.4167 91.3609 55.3942L91.3924 55.9013C91.262 55.9552 91.0551 55.9956 90.7898 55.9956C90.4751 55.9956 90.2187 55.8968 90.0569 55.7129C89.8635 55.5109 89.796 55.1833 89.796 54.7435V52.7152H89.2205V52.1991H89.796V51.3061L90.4571 51.1311L90.4616 51.1266Z" fill="black"/>
<path d="M92.1929 50.4579H92.8719V52.7779H92.8854C92.9933 52.585 93.1642 52.4189 93.371 52.3023C93.5734 52.1856 93.8117 52.1093 94.0635 52.1093C94.5626 52.1093 95.3631 52.4145 95.3631 53.6979V55.9102H94.6841V53.7742C94.6841 53.1773 94.4592 52.6702 93.8207 52.6702C93.38 52.6702 93.0337 52.9754 92.9123 53.3479C92.8719 53.4421 92.8674 53.5408 92.8674 53.671V55.9147H92.1884V50.4579H92.1929Z" fill="black"/>
<path d="M98.911 51.1266V52.1946H99.8823V52.7107H98.911V54.7166C98.911 55.1788 99.0414 55.4391 99.4192 55.4391C99.5945 55.4391 99.725 55.4167 99.8104 55.3942L99.8419 55.9013C99.7115 55.9552 99.5046 55.9956 99.2393 55.9956C98.9245 55.9956 98.6682 55.8968 98.5063 55.7129C98.313 55.5109 98.2455 55.1833 98.2455 54.7435V52.7152H97.6699V52.1991H98.2455V51.3061L98.9065 51.1311L98.911 51.1266Z" fill="black"/>
<path d="M102.639 55.9147L102.585 55.448H102.562C102.356 55.7397 101.955 56 101.425 56C100.669 56 100.287 55.4705 100.287 54.9319C100.287 54.0344 101.087 53.5408 102.526 53.5498V53.4735C102.526 53.1683 102.441 52.6119 101.681 52.6119C101.335 52.6119 100.97 52.7196 100.71 52.8901L100.557 52.4458C100.863 52.2439 101.312 52.1138 101.78 52.1138C102.918 52.1138 103.196 52.8901 103.196 53.635V55.0262C103.196 55.3493 103.21 55.6634 103.259 55.9192H102.643L102.639 55.9147ZM102.54 54.0165C101.802 54.003 100.962 54.1332 100.962 54.8557C100.962 55.2954 101.254 55.5019 101.6 55.5019C102.086 55.5019 102.391 55.1967 102.499 54.8781C102.522 54.8108 102.54 54.73 102.54 54.6627V54.0165Z" fill="black"/>
<path d="M104.285 50.4579H104.964V55.9147H104.285V50.4579Z" fill="black"/>
<path d="M106.479 54.178C106.493 55.0935 107.082 55.4704 107.756 55.4704C108.242 55.4704 108.534 55.3852 108.786 55.2775L108.903 55.7621C108.665 55.8698 108.255 55.991 107.662 55.991C106.515 55.991 105.832 55.2371 105.832 54.1152C105.832 52.9933 106.493 52.1093 107.581 52.1093C108.799 52.1093 109.119 53.1773 109.119 53.8594C109.119 53.9985 109.105 54.1062 109.096 54.1735H106.479V54.178ZM108.467 53.6934C108.476 53.2625 108.291 52.5939 107.527 52.5939C106.843 52.5939 106.542 53.2222 106.488 53.6934H108.467Z" fill="black"/>
<path d="M109.955 53.1997C109.955 52.8138 109.946 52.4997 109.924 52.1945H110.526L110.567 52.8093H110.58C110.764 52.4548 111.196 52.1093 111.812 52.1093C112.329 52.1093 113.13 52.4144 113.13 53.6934V55.9147H112.451V53.7696C112.451 53.1683 112.226 52.6702 111.587 52.6702C111.142 52.6702 110.796 52.9843 110.679 53.3613C110.648 53.4465 110.634 53.5587 110.634 53.6754V55.9102H109.955V53.1997V53.1997Z" fill="black"/>
<path d="M115.045 51.1266V52.1946H116.017V52.7107H115.045V54.7166C115.045 55.1788 115.176 55.4391 115.554 55.4391C115.729 55.4391 115.859 55.4167 115.945 55.3942L115.976 55.9013C115.846 55.9552 115.639 55.9956 115.374 55.9956C115.059 55.9956 114.803 55.8968 114.641 55.7129C114.447 55.5109 114.38 55.1833 114.38 54.7435V52.7152H113.804V52.1991H114.38V51.3061L115.041 51.1311L115.045 51.1266Z" fill="black"/>
<path d="M116.682 55.2236C116.885 55.3538 117.235 55.4929 117.577 55.4929C118.072 55.4929 118.301 55.2461 118.301 54.9409C118.301 54.6178 118.108 54.4428 117.609 54.2588C116.939 54.021 116.624 53.653 116.624 53.2042C116.624 52.6074 117.109 52.1138 117.91 52.1138C118.288 52.1138 118.62 52.2215 118.827 52.3426L118.656 52.8363C118.508 52.742 118.243 52.6209 117.896 52.6209C117.496 52.6209 117.271 52.8497 117.271 53.128C117.271 53.4331 117.496 53.5722 117.982 53.7562C118.629 54.003 118.958 54.3261 118.958 54.8781C118.958 55.5333 118.449 55.991 117.564 55.991C117.154 55.991 116.777 55.8923 116.516 55.7397L116.687 55.2236H116.682Z" fill="black"/>
<path d="M62.1588 38.0005V37.5921L63.5079 37.1837C63.998 37.0491 64.3533 36.7843 64.5691 36.3894C64.7894 35.9945 64.8974 35.5278 64.8974 34.9803V15.3608C64.5961 14.7101 64.3578 14.221 64.1824 13.8934C64.0025 13.5658 63.8047 13.2876 63.5888 13.0587C63.3685 12.8299 63.0717 12.5337 62.6895 12.1792L61.9969 11.4881V11.0797H69.2323L82.8035 29.5594V14.1806C82.8035 13.6376 82.7136 13.1485 82.5382 12.7132C82.3628 12.2779 81.9986 11.9952 81.4545 11.8561L80.1054 11.4881V11.0797H85.9512V11.4881L84.8495 11.8561C84.3594 12.0176 84.0581 12.3048 83.9502 12.7132C83.8423 13.1215 83.7883 13.5972 83.7883 14.1402V38.1261H81.4994L65.8867 16.7116V34.9848C65.8867 35.5278 65.9676 35.99 66.134 36.3715C66.2959 36.7529 66.6376 37.0222 67.1547 37.1882L68.3824 37.5966V38.0049H62.1678L62.1588 38.0005Z" fill="#3C3C3B"/>
<path d="M90.7268 47.7923C89.6386 47.7923 88.7707 47.5186 88.1322 46.9756C87.4937 46.4326 87.1699 45.737 87.1699 44.8934C87.1699 44.1305 87.4397 43.5202 87.9883 43.058C88.5324 42.5957 89.144 42.3669 89.8275 42.3669C90.511 42.3669 91.0821 42.5105 91.5452 42.7932C92.0084 43.0804 92.4176 43.4932 92.7729 44.0362L93.0607 44.3638C93.6587 45.1806 94.2613 45.1671 94.8594 44.3234C95.1067 43.9151 95.3855 43.3766 95.6958 42.7124C96.0105 42.0483 96.3703 41.1552 96.7795 40.0423L88.8517 21.1139C88.6628 20.5978 88.456 20.1805 88.2401 19.8708C88.0198 19.5567 87.669 19.292 87.1789 19.0765L86.4414 18.7893V18.381H96.6176V18.749L95.7992 19.0765C95.2011 19.265 94.8953 19.5747 94.8818 19.9965C94.8684 20.4183 94.9718 20.9434 95.1876 21.5671L99.4371 32.5796L103.484 21.446C103.7 20.8222 103.785 20.2972 103.731 19.8753C103.678 19.4535 103.336 19.1618 102.711 19.0003L101.852 18.7938V18.3855H107.536V18.7938L106.636 19.081C106.007 19.2695 105.575 19.5433 105.328 19.8978C105.081 20.2523 104.851 20.7414 104.631 21.3652L98.0521 39.2705C96.9908 42.1246 95.9251 44.2606 94.8639 45.6742C93.8026 47.0878 92.4266 47.7968 90.7358 47.7968" fill="#3C3C3B"/>
<path d="M118.157 38.6153C116.084 38.6153 114.285 38.1845 112.761 37.3318C111.237 36.4747 110.054 35.2586 109.227 33.6835C108.395 32.1083 107.981 30.255 107.981 28.1369C107.981 26.0188 108.422 24.1789 109.308 22.6307C110.193 21.0825 111.407 19.8843 112.945 19.0406C114.483 18.197 116.224 17.7751 118.157 17.7751C120.091 17.7751 121.822 18.188 123.346 19.0182C124.871 19.8484 126.076 21.0376 126.962 22.5858C127.848 24.134 128.288 25.9873 128.288 28.1324C128.288 30.2774 127.875 32.1353 127.043 33.7014C126.211 35.2676 125.042 36.4747 123.526 37.3318C122.015 38.189 120.221 38.6153 118.153 38.6153M118.153 37.7985C119.106 37.7985 119.87 37.5293 120.442 36.9818C121.013 36.4388 121.431 35.474 121.687 34.0873C121.943 32.7007 122.074 30.7441 122.074 28.2132C122.074 25.6822 121.943 23.6852 121.687 22.2986C121.426 20.9119 121.013 19.9471 120.442 19.4041C119.87 18.8611 119.106 18.5874 118.153 18.5874C117.199 18.5874 116.43 18.8611 115.841 19.4041C115.257 19.9471 114.834 20.9119 114.573 22.2986C114.312 23.6852 114.186 25.6598 114.186 28.2132C114.186 30.7666 114.317 32.7007 114.573 34.0873C114.834 35.474 115.252 36.4388 115.841 36.9818C116.426 37.5248 117.195 37.7985 118.153 37.7985Z" fill="#3C3C3B"/>
<path d="M137.696 38.6108C135.951 38.6108 134.597 38.1755 133.631 37.3049C132.664 36.4343 132.178 35.0477 132.178 33.145V19.1932H129.359V18.7849L130.339 18.6233C131.184 18.4348 131.913 18.1611 132.524 17.8066C133.136 17.4521 133.743 16.9764 134.346 16.3795L137.696 12.6683H138.105L137.983 18.381H142.561V19.1977H137.943V33.8809C137.943 34.8323 138.154 35.5548 138.577 36.0439C139 36.5331 139.539 36.7799 140.191 36.7799C140.762 36.7799 141.266 36.6363 141.702 36.3536C142.138 36.0664 142.575 35.6804 143.011 35.1913L143.42 35.5997C142.876 36.5241 142.125 37.26 141.172 37.803C140.218 38.346 139.058 38.6198 137.696 38.6198" fill="#3C3C3B"/>
<path d="M150.651 38.6107C149.072 38.6107 147.741 38.162 146.667 37.2645C145.592 36.367 145.052 35.0746 145.052 33.3872C145.052 32.1083 145.704 30.9326 147.013 29.86C148.322 28.7875 150.377 27.9753 153.187 27.4323C153.623 27.3515 154.113 27.2617 154.657 27.1675C155.202 27.0733 155.773 26.9701 156.375 26.8624V23.6403C156.375 21.7914 156.15 20.4945 155.701 19.7451C155.251 18.9957 154.55 18.6232 153.596 18.6232C152.944 18.6232 152.423 18.8341 152.045 19.256C151.663 19.6778 151.42 20.4048 151.307 21.4369L151.226 21.8857C151.172 23.0569 150.885 23.914 150.368 24.457C149.85 25 149.207 25.2738 148.447 25.2738C147.737 25.2738 147.152 25.0539 146.689 24.6186C146.226 24.1833 145.992 23.5999 145.992 22.864C145.992 21.751 146.379 20.8087 147.157 20.0503C147.935 19.2874 148.96 18.7175 150.242 18.336C151.523 17.9546 152.913 17.7661 154.41 17.7661C156.834 17.7661 158.709 18.3585 160.031 19.5387C161.353 20.7234 162.014 22.6441 162.014 25.3097V34.3251C162.014 35.5502 162.585 36.1605 163.732 36.1605H164.631L165 36.4881C164.483 37.1388 163.916 37.6459 163.305 37.9959C162.693 38.3505 161.825 38.5255 160.71 38.5255C159.509 38.5255 158.565 38.2472 157.868 37.6908C157.176 37.1343 156.717 36.3939 156.501 35.4695C155.683 36.34 154.846 37.0805 153.987 37.6908C153.129 38.3011 152.018 38.6062 150.655 38.6062M153.151 36.1201C153.695 36.1201 154.208 35.99 154.684 35.7342C155.161 35.4739 155.728 35.0746 156.38 34.5316V27.6791C156.105 27.7329 155.836 27.7868 155.561 27.8406C155.287 27.8945 154.977 27.9483 154.621 28.0022C153.367 28.3298 152.364 28.8773 151.618 29.6536C150.867 30.4299 150.493 31.4666 150.493 32.7724C150.493 33.8854 150.75 34.7245 151.271 35.281C151.789 35.8374 152.418 36.1157 153.151 36.1157" fill="#3C3C3B"/>
<path d="M24.5703 0C21.0223 0 18.1444 2.87202 18.1444 6.41269C18.1444 9.95336 21.0223 12.8254 24.5703 12.8254C28.1182 12.8254 30.9962 9.95336 30.9962 6.41269C30.9962 2.87202 28.1182 0 24.5703 0Z" fill="#1D67F1"/>
<path d="M40.8712 49.8521C40.5924 49.8521 40.3091 49.7713 40.0617 49.6098L24.0442 39.0506L10.2032 49.5559C9.68155 49.9508 8.96657 49.9553 8.44045 49.5649C7.91432 49.1745 7.71197 48.4879 7.9413 47.8776L13.985 31.6551L1.47045 31.709H1.46595C0.827412 31.709 0.265316 31.3006 0.0674583 30.6903C-0.125903 30.08 0.0944389 29.4159 0.616064 29.0479L20.4468 15.0288C20.9729 14.6563 21.6789 14.6743 22.1916 15.0647C22.6997 15.4551 22.8976 16.1327 22.6727 16.7341L18.2119 28.7023L31.383 28.644L26.6299 16.7655C26.3871 16.1642 26.5714 15.4731 27.0841 15.0737C27.5922 14.6698 28.3072 14.6519 28.8378 15.0243L48.5157 28.837C49.0373 29.2049 49.2621 29.8646 49.0733 30.4749C48.8799 31.0852 48.3178 31.4981 47.6793 31.5026L35.7134 31.5564L42.2337 47.8417C42.472 48.434 42.2966 49.1162 41.7975 49.52C41.5277 49.7399 41.1994 49.8476 40.8712 49.8476M23.9858 35.7837C24.2691 35.7837 24.5479 35.8645 24.7952 36.026L37.7684 44.5792L32.5566 31.5609L17.1237 31.6282L12.4561 44.1529L23.0954 36.0754C23.3562 35.8779 23.671 35.7747 23.9858 35.7747M18.2659 20.1491L6.10662 28.7427L15.0777 28.7023L18.2659 20.1446V20.1491ZM31.1896 20.2433L34.5442 28.6171L43.0656 28.5767L31.1896 20.2388V20.2433Z" fill="#3C3C3B"/>
</g>
<defs>
<clipPath id="clip0_1264_479">
<rect width="165" height="56" fill="white"/>
</clipPath>
</defs>
</svg>
