<svg width="513" height="384" viewBox="0 0 513 384" fill="none" xmlns="http://www.w3.org/2000/svg">
<path d="M248.905 462.043C247.207 460.345 245.973 458.129 245.448 455.642L212.046 293.974L63.9574 273.497C58.3825 272.72 54.0015 268.393 53.1691 262.818C52.3366 257.243 55.2746 251.841 60.3779 249.53L195.71 187.802L119.178 111.924L119.151 111.897C115.262 108.009 114.32 102.106 116.822 97.194C119.351 92.3098 124.727 89.6176 130.138 90.559L336.041 126.167C341.507 127.108 345.697 131.516 346.447 137.009C347.17 142.475 344.259 147.795 339.238 150.078L239.383 195.607L319.94 275.455L363.144 174.365C365.317 169.234 370.637 166.16 376.185 166.855C381.732 167.497 386.195 171.741 387.163 177.235L423.094 380.953C424.035 386.364 421.398 391.74 416.541 394.297C411.657 396.826 405.726 395.911 401.811 392.05L328.62 319.513L269.412 458.129C267.266 463.178 262.055 466.253 256.562 465.666C253.584 465.359 250.931 464.014 248.932 462.015M231.532 273.775C233.257 275.5 234.464 277.689 234.989 280.176L262.037 411.123L309.37 300.318L214.986 206.751L110.492 254.4L224.339 270.125C227.126 270.514 229.67 271.804 231.587 273.721M291.662 143.985L165.425 122.139L220.298 176.521L291.689 143.958L291.662 143.985ZM369.786 223.254L339.353 294.541L391.488 346.185L369.813 223.227L369.786 223.254Z" fill="white"/>
</svg>
