<?xml version="1.0" encoding="utf-8"?>
<!-- Generator: Adobe Illustrator 26.4.1, SVG Export Plug-In . SVG Version: 6.00 Build 0)  -->
<svg version="1.1" id="Layer_1" xmlns="http://www.w3.org/2000/svg" xmlns:xlink="http://www.w3.org/1999/xlink" x="0px" y="0px"
	 viewBox="0 0 610.3 190.5" style="enable-background:new 0 0 610.3 190.5;" xml:space="preserve">
<style type="text/css">
	.st0{fill:#1D67F1;}
	.st1{fill:#F6F6F6;}
</style>
<path class="st0" d="M134.9,189.8c-46.7-2-132.6,16.5-134.1-54.9C2.8,88.2-15.8,2.2,55.7,0.8c46.7,2,132.6-16.5,134.1,54.9
	C187.8,102.3,206.3,188.3,134.9,189.8z"/>
<path class="st1" d="M95.3,66.9c8.3,0,15-6.7,15-15s-6.7-15-15-15s-15,6.7-15,15S87,66.9,95.3,66.9z"/>
<path class="st1" d="M151.3,104.4l-46-32.4c-1.5-1.1-3.7-0.7-4.8,0.8c-0.7,1-0.8,2.2-0.4,3.3l11.1,27.8l-30.8,0.1l10.4-28.1
	c0.7-1.8-0.2-3.8-2-4.4c-1.1-0.4-2.3-0.2-3.2,0.4l-46.4,32.9c-1.6,1.1-1.9,3.2-0.8,4.8c0.6,0.9,1.7,1.5,2.8,1.5l0,0l29.3-0.2
	l-14.1,38c-0.7,1.8,0.1,3.8,1.9,4.5c1.1,0.5,2.4,0.3,3.4-0.5L94,128.4l37.5,24.8c0.6,0.4,1.2,0.6,1.9,0.6c1.9,0,3.4-1.5,3.4-3.4
	c0-0.4-0.1-0.9-0.2-1.3l-15.3-38.2l28-0.1c1.9,0,3.4-1.5,3.5-3.4C152.8,106.2,152.2,105.1,151.3,104.4L151.3,104.4z M52.1,104.2
	l28.4-20.1l-7.5,20L52.1,104.2z M126.1,141.4l-30.3-20c-1.2-0.8-2.8-0.8-4,0.1l-24.9,18.9L77.8,111l36.1-0.2L126.1,141.4z
	 M118.6,104l-7.8-19.6l27.8,19.5L118.6,104z"/>
<g>
	<path d="M304.1,57.1v76.4h-17.4L256.3,92v41.5h-20.4V57.1h18.4l29.3,40.1V57.1H304.1z"/>
	<path d="M360.3,103.6v29.9h-21.4v-29.9l-26.5-46.5h23.3l14,27.6l14-27.6H387L360.3,103.6z"/>
	<path d="M426.8,135.4c-24.6,0-42.1-16.8-42.1-40.1s17.5-40.1,42.1-40.1s42,16.7,42,40.1S451.4,135.4,426.8,135.4z M426.8,115.8
		c11.6,0,20-8.6,20-20.5s-8.4-20.6-20-20.6s-20.2,8.6-20.2,20.5S415.2,115.8,426.8,115.8z"/>
	<path d="M534.9,76h-20.8v57.4H493V76h-20.8V57h62.6V76z"/>
	<path d="M583,121.1h-27.1l-4.2,12.4h-22.6l30-76.4h20.6l30.7,76.4h-23.2L583,121.1z M569.4,80.9l-8.4,23.7h16.8L569.4,80.9z"/>
</g>
</svg>
