<svg width="127" height="113" viewBox="0 0 127 113" fill="none" xmlns="http://www.w3.org/2000/svg">
<g clip-path="url(#clip0_1267_829)">
<path d="M113.38 39.5003L92.8816 16.2555C92.665 16.0067 92.3507 15.8527 92.024 15.8285C91.6885 15.8088 91.3629 15.9187 91.1187 16.1442L80.007 25.9419C79.7671 26.154 79.6264 26.4503 79.5974 26.7457C78.2824 28.4154 75.9074 29.5032 72.5033 29.9819C71.927 30.0626 71.3462 30.1343 70.7608 30.1971C68.1158 30.5133 65.3723 30.8347 62.9016 32.2631C60.6134 33.5872 58.694 35.7447 56.8645 39.0688C56.1811 40.3041 55.6008 41.5654 55.0875 42.8262C54.017 42.62 52.8969 42.3606 51.7095 42.0794C48.255 41.2705 44.675 40.4358 42.0446 40.9129C37.3467 41.7821 34.0984 45.5379 32.586 47.701C31.936 48.6275 31.3532 49.5758 30.7791 50.4972C29.5957 52.4028 28.483 54.2051 26.881 55.7742L13.6008 60.0211C12.9405 60.2231 12.5839 60.9326 12.7949 61.5883L22.2292 91.1153C22.3345 91.432 22.5557 91.6896 22.8477 91.8438C23.1396 91.9981 23.4886 92.0221 23.7964 91.9213L37.4246 87.5642C37.4703 87.698 37.4938 87.832 37.5574 87.9567C38.6593 90.4256 41.7864 91.6709 44.3992 90.6751C44.5776 90.6066 44.7603 90.5247 44.9295 90.4383C45.5353 90.1294 46.0686 89.7003 46.5253 89.2092C46.5709 89.3206 46.6031 89.4277 46.6487 89.5392C47.7506 92.008 50.8777 93.2533 53.4905 92.2576C53.6689 92.1891 53.8427 92.1116 54.0119 92.0253C53.9956 92.7857 54.114 93.6122 54.4738 94.4277C55.5757 96.8966 58.7028 98.1419 61.3156 97.1461C61.494 97.0776 61.6767 96.9957 61.846 96.9094C62.8526 96.396 63.6779 95.571 64.2603 94.578C65.872 94.7888 67.7212 94.4968 69.2891 93.6972C70.7056 92.9749 71.8817 91.8474 72.4199 90.3494C72.56 89.9637 72.6104 89.5563 72.6205 89.1358C73.5306 89.4238 74.449 89.6177 75.4281 89.5786C75.9333 89.5567 76.4641 89.387 76.9719 89.128C78.5309 88.333 79.9844 86.6488 80.4 85.4827C80.693 84.6485 80.6857 83.7318 80.4103 82.8395C80.9747 82.9558 81.5388 83.0273 82.1334 83.0047C82.6386 82.9828 83.1695 82.8131 83.6773 82.5541C85.2362 81.7591 86.6897 80.0749 87.1053 78.9088C87.4509 77.9356 87.3796 76.8494 86.9601 75.8286C87.1524 75.8315 87.336 75.8613 87.5327 75.8508C88.0379 75.8289 88.5598 75.6638 89.0765 75.4003C90.6355 74.6052 92.089 72.921 92.5046 71.7549C93.0339 70.2615 92.6083 68.4804 91.3763 67.0993C91.3582 67.0637 91.3178 67.0506 91.2907 67.0195C93.1254 64.894 94.348 62.2948 94.8178 59.5183C94.9824 59.4007 95.1244 59.2609 95.2302 59.0722C96.7803 56.0367 99.0624 53.3799 101.828 51.3856C101.944 51.3042 102.032 51.1917 102.108 51.0748C102.116 51.0702 102.134 51.0611 102.143 51.0566L113.255 41.2589C113.504 41.0423 113.658 40.728 113.682 40.4013C113.702 40.0657 113.592 39.7401 113.366 39.496L113.38 39.5003ZM108.879 38.181C108.95 38.167 109.026 38.162 109.093 38.1614C109.129 38.1656 109.165 38.1698 109.205 38.1829C109.255 38.1914 109.308 38.2089 109.353 38.2309C109.38 38.2396 109.412 38.2573 109.43 38.2706C109.497 38.3147 109.569 38.3678 109.628 38.4389C109.7 38.5367 109.741 38.6616 109.765 38.7733C109.769 38.7822 109.765 38.7956 109.765 38.818C109.775 38.9252 109.767 39.0416 109.732 39.1492C109.688 39.2837 109.618 39.4095 109.493 39.4955C106.728 41.6462 104.005 43.9219 101.412 46.2547C101.367 46.2998 101.31 46.3405 101.256 46.3678C100.962 46.5177 100.595 46.458 100.36 46.196C100.081 45.8896 100.108 45.4154 100.415 45.1356C103.039 42.7758 105.784 40.4775 108.571 38.3042C108.66 38.2364 108.763 38.1954 108.87 38.1632L108.879 38.181ZM93.4842 29.0369C93.2648 29.5753 92.767 29.9639 92.2367 30.2007C91.537 30.5014 90.7011 30.5572 90.0096 30.2139C89.3227 29.8795 88.8424 29.0917 88.984 28.3348C89.1082 27.654 89.6499 27.1533 90.1786 26.7152L90.1471 26.6976C90.4699 26.2299 91.1356 26.1486 91.6912 26.2694C92.3094 26.4031 92.8845 26.7384 93.2464 27.2499C93.6082 27.7613 93.7255 28.4536 93.4842 29.0369ZM105.794 36.0276C106.114 35.7746 106.593 35.8334 106.846 36.1534C107.103 36.4823 107.04 36.9523 106.72 37.2053C103.955 39.3561 101.232 41.6318 98.6387 43.9646C98.5943 44.0097 98.5365 44.0504 98.4831 44.0777C98.1891 44.2276 97.8219 44.1679 97.5872 43.9059C97.3075 43.5995 97.3351 43.1253 97.6414 42.8455C100.266 40.4857 103.011 38.1874 105.798 36.0141L105.794 36.0276ZM33.2952 74.4486L20.8645 78.6664L20.328 76.998L32.8224 72.9273C32.9831 73.4403 33.1391 73.9444 33.2908 74.462L33.2952 74.4486ZM19.8738 75.5571L19.2547 73.6389L31.7723 69.6575C31.9783 70.2596 32.1844 70.8617 32.3726 71.4729L19.8603 75.5527L19.8738 75.5571ZM18.8051 72.2069L18.3191 70.7036C19.6253 70.1834 20.9681 69.7568 22.3386 69.4507C22.6171 69.6006 22.9177 69.7279 23.2357 69.779C23.8536 69.868 24.51 69.7465 25.1425 69.424C25.3296 69.3286 25.5165 69.2108 25.6989 69.0841C25.979 68.8851 26.2187 68.6506 26.4314 68.4074L30.8609 66.9679C31.0074 67.3871 31.1673 67.8107 31.3137 68.23L18.814 72.2024L18.8051 72.2069ZM17.3283 67.5943C18.4387 67.1964 19.5768 66.8967 20.7377 66.6638C20.7371 67.1468 20.8303 67.6157 21.0214 68.0345C21.0532 68.0969 21.0894 68.1458 21.1212 68.2082C20.0099 68.4943 18.9215 68.8473 17.8648 69.2627L17.3283 67.5943ZM29.7778 64.0517C29.9651 64.5511 30.157 65.0594 30.3443 65.5588L27.3021 66.549C27.3105 66.4774 27.3412 66.4056 27.3451 66.325C27.3902 65.8193 27.2834 65.3237 27.0875 64.8736L29.7778 64.0517ZM25.8504 66.2117C25.8016 66.8203 25.4219 67.4405 24.8127 67.8747C24.3547 68.2093 23.8595 68.3608 23.4565 68.2969C23.0087 68.2334 22.5945 67.8834 22.3851 67.4289C22.1847 66.9698 22.1712 66.393 22.3591 65.837C22.464 65.5365 22.6628 65.2219 22.8855 65.1083C22.8855 65.1083 22.8944 65.1037 22.9033 65.0992C23.0107 65.1117 23.1269 65.0974 23.2429 65.0607C23.8806 64.8365 24.5544 64.6388 25.0657 64.8271C25.5501 65.0066 25.886 65.6211 25.8415 66.2162L25.8504 66.2117ZM29.2256 62.6607L26.0312 63.6387C25.8963 63.5503 25.7482 63.48 25.6046 63.4185C24.7164 63.0857 23.8102 63.2896 23.0028 63.5555C22.9939 63.56 22.9716 63.5602 22.9581 63.5558C22.0328 63.6124 21.3855 64.3241 21.0603 65.0512C19.6356 65.2951 18.2389 65.6819 16.8697 66.1669L16.3697 64.5921L28.5229 60.9087C28.7601 61.4837 28.9928 62.0722 29.221 62.6518L29.2256 62.6607ZM22.387 83.4128C26.5469 82.369 30.6873 81.133 34.7506 79.7456C34.9028 80.3302 35.055 80.9149 35.1894 81.5086L23.1254 85.7191L22.387 83.4128ZM34.3767 78.2861C30.3002 79.6915 26.1196 80.9368 21.9285 81.9853L21.3185 80.085L33.7047 75.8899C33.9301 76.6841 34.1601 77.4873 34.3767 78.2861ZM27.397 58.2388C27.5793 58.6622 27.7572 59.099 27.9394 59.5225L15.9112 63.1646L15.5443 62.0271L27.397 58.2388ZM24.2306 89.1629L23.584 87.1466L35.5366 82.9817C35.7173 83.7764 35.9115 84.5754 36.0744 85.3791L24.2306 89.1629ZM43.4996 88.3388C42.1352 88.855 40.3947 88.1935 39.8346 86.9413C39.525 86.2461 39.4999 85.3384 39.7695 84.3703C40.0521 83.3617 40.4283 82.2944 41.0964 81.9536L41.132 81.9354C42.1925 81.4395 43.1314 81.4097 43.9488 81.846C44.9055 82.3571 45.5896 83.4563 45.693 84.6496C45.8216 86.2005 44.8685 87.8315 43.5041 88.3477L43.4996 88.3388ZM48.9214 88.5148C48.6118 87.8196 48.5866 86.9119 48.8562 85.9438C49.1389 84.9353 49.515 83.8679 50.1832 83.5271L50.2188 83.509C51.2793 83.0131 52.2316 82.9876 53.0356 83.4195C53.9923 83.9307 54.6763 85.0299 54.7797 86.2231C54.9084 87.774 53.9508 89.3961 52.5909 89.9212C51.2265 90.4375 49.486 89.776 48.9259 88.5237L48.9214 88.5148ZM60.416 94.8098C59.0516 95.326 57.3111 94.6646 56.7511 93.4123C56.4414 92.7171 56.4163 91.8094 56.6859 90.8413C56.9729 89.8193 57.34 88.7341 58.0395 88.411C59.1 87.9151 60.0389 87.8853 60.8564 88.3215C61.813 88.8327 62.4971 89.9319 62.6005 91.1252C62.7291 92.676 61.7761 94.3071 60.4071 94.8144L60.416 94.8098ZM89.3286 65.4832C88.8882 65.2139 88.439 64.9715 88.0124 64.7513C86.0229 63.7117 82.2219 61.5192 78.5467 59.3972C74.8446 57.2666 71.0257 55.0608 68.9913 53.9992C68.3805 53.682 67.6221 53.9117 67.3049 54.5224C66.9878 55.1332 67.2174 55.8916 67.8282 56.2088C69.8087 57.253 73.6186 59.4409 77.2938 61.5628C80.9959 63.6935 84.8149 65.8993 86.8493 66.9609C87.8283 67.4719 88.8433 68.0095 89.5202 68.7644C90.0165 69.3194 90.4081 70.1974 90.1544 70.9105C89.8307 71.8165 88.1521 73.3235 87.4323 73.3427C86.3548 73.387 85.2514 72.9844 84.0132 72.4933C80.0786 70.9414 74.3944 68.1378 71.3368 66.6326C70.7217 66.3289 69.9634 66.5809 69.6643 67.2049C69.3606 67.82 69.6126 68.5783 70.2366 68.8775C73.2988 70.3916 78.983 73.1952 83.0073 74.7911C83.0981 74.9693 83.2068 75.1384 83.3733 75.2667C83.6612 75.4791 83.8955 75.6964 84.1031 75.9273C84.5994 76.4824 84.991 77.3603 84.7373 78.0734C84.4136 78.9794 82.735 80.4865 82.0152 80.5056C80.9466 80.5454 79.8343 80.1473 78.5961 79.6563C74.6435 78.0911 68.9728 75.2918 65.9197 73.7955C65.3046 73.4918 64.5463 73.7438 64.2472 74.3679C63.9435 74.983 64.1955 75.7413 64.8195 76.0404C68.8291 78.0255 72.9549 80.0187 76.3114 81.4276C76.3932 81.5879 76.5017 81.7346 76.6591 81.8452C76.9515 82.0665 77.1813 82.2749 77.3888 82.5058C77.8852 83.0609 78.2768 83.9388 78.032 84.6473C77.7083 85.5533 76.0297 87.0604 75.3098 87.0796C74.2413 87.1194 73.129 86.7212 71.8907 86.2302C67.9382 84.665 62.2675 81.8657 59.2144 80.3694C58.5993 80.0658 57.841 80.3178 57.5419 80.9418C57.2382 81.5569 57.4902 82.3152 58.1142 82.6143C62.2493 84.6476 66.4875 86.707 69.8933 88.1244C70.1253 88.6235 70.1874 89.1194 70.043 89.5186C69.4393 91.2184 67.0457 92.2258 65.055 92.1522C65.1054 91.7448 65.1246 91.3421 65.0899 90.922C64.9127 88.8796 63.7532 87.0462 62.0375 86.1252C60.5957 85.345 58.9498 85.3313 57.2648 86.0334C57.0921 83.9999 55.9281 82.1577 54.2124 81.2366C52.6853 80.4214 50.9367 80.4263 49.1545 81.2679C48.5172 81.5592 48.0467 82.0012 47.675 82.5051C47.1466 81.2928 46.2575 80.2757 45.1256 79.6631C43.5985 78.8478 41.8499 78.8528 40.0677 79.6944C38.9627 80.213 38.3177 81.2154 37.9047 82.1445C35.835 73.2656 32.9899 64.7372 29.4331 56.7065C30.8161 55.148 31.8806 53.4714 32.8918 51.8444C33.4482 50.9545 34.0088 50.0287 34.6236 49.1652C35.9237 47.3122 38.6666 44.1062 42.4937 43.4004C44.6105 43.0169 47.9306 43.782 51.1343 44.5392C52.1559 44.7815 53.1953 45.0148 54.1942 45.2126C53.4163 47.4951 52.8389 49.6867 52.3977 51.573C52.1339 52.7066 51.5689 53.6458 50.9776 54.6433C50.4921 55.4522 49.9889 56.2925 49.6077 57.2839C49.0423 58.7285 48.938 60.241 49.3016 61.5261C49.3797 61.7893 49.4713 62.0569 49.585 62.302C50.5132 64.2982 52.7597 65.5997 55.1877 65.5401C56.4755 65.512 57.6219 65.1406 58.6107 64.6363C59.5016 64.182 60.2485 63.6215 60.8303 63.1115C63.0954 61.1257 65.4803 57.9001 67.224 54.4739C67.7568 53.4276 67.9683 52.4554 68.1844 51.5145C68.2362 51.286 68.2881 51.0575 68.3445 50.8379C70.5066 52.2161 73.0266 53.0413 75.5947 53.1685C78.1897 53.3044 80.8148 52.7289 83.131 51.5477C83.5586 51.3296 83.9682 51.0983 84.3731 50.8357C84.956 50.4599 85.1243 49.6893 84.7484 49.1064C84.3726 48.5235 83.5842 48.3643 83.0192 48.7311C80.87 50.1077 78.2681 50.7948 75.7224 50.6675C73.3019 50.5436 70.9203 49.6815 68.9677 48.2301C68.8669 47.9223 68.6501 47.6512 68.3269 47.5018C67.7029 47.2026 66.958 47.459 66.6589 48.083C66.1706 49.1066 65.9545 50.0475 65.7471 50.9615C65.5613 51.7858 65.3798 52.5744 64.9922 53.3333C63.3894 56.4856 61.2125 59.4367 59.1829 61.2239C57.8949 62.3522 56.4599 62.9942 55.132 63.0316C53.7682 63.0648 52.4882 62.3818 51.939 61.3709C51.9881 61.3571 52.0417 61.3522 52.0951 61.325L52.1129 61.3159C54.4508 60.0451 55.4751 57.2552 56.1537 55.4161C56.4076 54.7254 56.7533 53.7745 56.4594 52.8019C56.271 52.1683 55.7344 51.6225 55.0888 51.413C55.0619 51.4042 55.0395 51.4044 55.026 51.4C55.8227 48.0976 57.0021 44.0051 59.0699 40.2677C60.6747 37.3614 62.2878 35.506 64.171 34.4221C66.2189 33.243 68.5691 32.9649 71.0712 32.6767C71.6744 32.6048 72.2687 32.5375 72.8673 32.4567C76.4412 31.9587 79.111 30.8104 80.8904 29.061C86.2582 36.5049 92.4996 43.5707 99.4744 50.0716C97.0435 52.0185 94.9965 54.4319 93.4752 57.1497C92.9753 57.27 92.5671 57.6802 92.5134 58.2352C92.2529 60.9161 91.1283 63.4653 89.3555 65.492L89.3286 65.4832ZM55.0004 53.2428C55.1338 53.7024 54.9505 54.2674 54.7186 54.9132C53.9658 56.9809 53.1447 58.8926 51.5871 59.8666C51.5963 59.3343 51.7035 58.7521 51.927 58.1778C52.2382 57.3793 52.6619 56.6693 53.1165 55.9099C53.6771 54.9841 54.2284 54.0182 54.6128 52.8568C54.7787 52.9181 54.9545 53.0867 55.0004 53.2428ZM40.2121 34.3041C39.5313 34.1798 39.0789 33.5349 39.2032 32.8541C39.3275 32.1733 39.9724 31.721 40.6531 31.8453C42.4804 32.1706 44.2518 32.7827 45.9001 33.6595C46.5154 33.9856 46.7405 34.7351 46.4145 35.3504C46.2866 35.584 46.1003 35.7689 45.8776 35.8824C45.5301 36.0596 45.0964 36.0675 44.7281 35.8737C43.3089 35.1157 41.7887 34.6001 40.2166 34.313L40.2121 34.3041ZM48.9535 31.2605C47.8204 29.3688 46.8653 27.3638 46.093 25.2993C45.8508 24.6483 46.1851 23.939 46.8316 23.6879C47.4826 23.4457 48.2008 23.7754 48.443 24.4264C49.1514 26.3439 50.0473 28.2106 51.1034 29.9732C51.4614 30.5652 51.2618 31.3405 50.6742 31.6851C50.6475 31.6987 50.6208 31.7123 50.603 31.7214C50.0239 32.0167 49.3023 31.8123 48.9579 31.247L48.9535 31.2605ZM55.1065 29.4584C54.4255 29.3118 53.9999 28.6533 54.1465 27.9723C54.4183 26.7224 54.4618 25.443 54.2952 24.1697C54.2047 23.4861 54.6828 22.8607 55.3618 22.7614C56.0453 22.671 56.6797 23.1445 56.7701 23.828C56.9838 25.3916 56.9202 26.9619 56.588 28.4896C56.5016 28.8704 56.2536 29.1765 55.9329 29.34C55.6834 29.4672 55.3931 29.5143 55.1019 29.4495L55.1065 29.4584Z" fill="url(#paint0_linear_1267_829)"/>
</g>
<defs>
<linearGradient id="paint0_linear_1267_829" x1="90.8453" y1="12.2159" x2="8.20374" y2="79.1809" gradientUnits="userSpaceOnUse">
<stop stop-color="#EEA6FF"/>
<stop offset="1" stop-color="#1D67F1"/>
</linearGradient>
<clipPath id="clip0_1267_829">
<rect width="104.71" height="72.57" fill="white" transform="translate(0 47.5711) rotate(-27.0207)"/>
</clipPath>
</defs>
</svg>
